Coordinates
nRows=5
nColumns=24

# SIMM Motion File Header:
name Coordinates
datacolumns 24
datarows 5
otherdata 1
range 0.79932999999999998000 0.80332999999999999000
endheader
time	pelvis_tx	pelvis_ty	pelvis_tz	pelvis_tilt	pelvis_list	pelvis_rotation	hip_flexion_r	hip_adduction_r	hip_rotation_r	knee_angle_r	ankle_angle_r	subtalar_angle_r	mtp_angle_r	hip_flexion_l	hip_adduction_l	hip_rotation_l	knee_angle_l	ankle_angle_l	subtalar_angle_l	mtp_angle_l	lumbar_extension	lumbar_bending	lumbar_rotation
      0.79932999999999998000	      0.84084340125457135000	      0.89866906802419033000	     -0.26035548695532890000	      3.30906111876952820000	     -0.56606046978718050000	     -5.30203771252964810000	     17.33165220508773500000	      0.18495566911890160000	      8.44570449316970520000	    -46.42183789075942700000	      6.61134464455590990000	      0.00000000000024159556	     -0.00000000000117707786	      2.42135538178875940000	      1.77118988248510270000	      3.01918848495475340000	    -17.98251326612967600000	     12.03821315180682700000	     -0.00000000000006255208	      0.00000000000017825973	    -14.77775712666624100000	      2.07701460110567430000	     10.90363242590443000000
      0.80032999999999999000	      0.84196374634540283000	      0.89868633317037971000	     -0.26045481767180706000	      3.31868524772255920000	     -0.58123404960415648000	     -5.27790041450683130000	     17.40667680647677100000	      0.18638795355728957000	      8.45740584088724210000	    -46.18038481440855500000	      6.60268663368058120000	      0.00000000000024236464	     -0.00000000000118045470	      2.29738782522483390000	      1.76603020733603030000	      3.00082162056893910000	    -17.92449486727496600000	     12.09342617220330500000	     -0.00000000000006296040	      0.00000000000017875275	    -14.80810024531001900000	      2.11853815763632270000	     10.86996753038273900000
      0.80132999999999999000	      0.84308409143623442000	      0.89870359831656921000	     -0.26055414838828517000	      3.32830937667559020000	     -0.59640762942113235000	     -5.25376311648401460000	     17.48170140786580300000	      0.18782023799567757000	      8.46910718860477910000	    -45.93893173805768300000	      6.59402862280525340000	      0.00000000000024313372	     -0.00000000000118383153	      2.17342026866090880000	      1.76087053218695780000	      2.98245475618312470000	    -17.86647646842025200000	     12.14863919259978100000	     -0.00000000000006336872	      0.00000000000017924576	    -14.83844336395379700000	      2.16006171416697110000	     10.83630263486104900000
      0.80232999999999999000	      0.84420545314836659000	      0.89871746921485018000	     -0.26065381358407419000	      3.33814065774127890000	     -0.61116816437356247000	     -5.22897398948029140000	     17.55491257268053600000	      0.18812428593956276000	      8.48026233220211800000	    -45.69447024696546600000	      6.58431124689441210000	      0.00000000000024389520	     -0.00000000000118713436	      2.04938282437975740000	      1.75604015138284740000	      2.96471873837867990000	    -17.80878769213308700000	     12.20373372253818200000	     -0.00000000000006378897	      0.00000000000017972480	    -14.86880257284512300000	      2.20118003059862310000	     10.80288259432804100000
      0.80332999999999999000	      0.84532783148179957000	      0.89872794586522264000	     -0.26075381325917402000	      3.34817909091962430000	     -0.62551565446144741000	     -5.20353303349566240000	     17.62631030092097000000	      0.18730009738894690000	      8.49087127167926070000	    -45.44700034113191100000	      6.57353450594806080000	      0.00000000000024464909	     -0.00000000000119036318	      1.92527549238138080000	      1.75153906492369860000	      2.94761356715560300000	    -17.75142853841346400000	     12.25870976201851000000	     -0.00000000000006422116	      0.00000000000018018984	    -14.89917787198400000000	      2.24189310693127950000	     10.76970740878371300000
